<svg width="100" height="100" xmlns="http://www.w3.org/2000/svg">

 <g width="0" height="0">
  <title width="0" height="0">Layer 1</title>
  <path id="imagebot_2" fill="#ffffff" d="M 62.52750026702881 56.419999542236326 L 66.87750026702881 52.06999954223633 C 67.27750026702881 51.669999542236326 67.49750026702881 51.129999542236334 67.49750026702881 50.56999954223633 L 67.49750026702881 42.10999954223633 C 67.49750026702881 40.92999954223633 68.44750026702881 39.97999954223633 69.62750026702881 39.97999954223633 L 76.02750026702881 39.97999954223633 C 77.2075002670288 39.97999954223633 78.15750026702881 39.029999542236325 78.15750026702881 37.849999542236326 L 78.15750026702881 31.449999542236327 C 78.15750026702881 30.269999542236327 79.10750026702881 29.31999954223633 80.2875002670288 29.31999954223633 L 86.68750026702881 29.31999954223633 C 87.8675002670288 29.31999954223633 88.8175002670288 28.36999954223633 88.8175002670288 27.18999954223633 L 88.8175002670288 20.78999954223633 C 88.8175002670288 19.60999954223633 89.76750026702881 18.659999542236328 90.94750026702881 18.659999542236328 L 97.87750026702881 18.659999542236328 C 99.05750026702881 18.659999542236328 100.0075002670288 17.70999954223633 100.0075002670288 16.52999954223633 L 100.0075002670288 2.1299995422363285 C 100.0075002670288 0.9499995422363288 99.05750026702881 -4.5776367230132564e-7 97.87750026702881 -4.5776367230132564e-7 L 81.93750026702881 -4.5776367230132564e-7 C 81.37750026702881 -4.5776367230132564e-7 80.82750026702881 0.21999954223632834 80.43750026702881 0.6199995422363287 L 43.57750026702881 37.46999954223633 C 32.097500267028806 33.19999954223633 18.68750026702881 35.639999542236325 9.45750026702881 44.86999954223633 C -3.152499732971192 57.47999954223633 -3.152499732971192 77.92999954223633 9.45750026702881 90.53999954223633 S 42.51750026702881 103.14999954223633 55.12750026702881 90.53999954223633 C 64.35750026702881 81.30999954223633 66.80750026702881 67.89999954223633 62.52750026702881 56.419999542236326 z M 15.897500267028807 84.09999954223633 C 11.997500267028808 80.19999954223633 11.997500267028808 73.86999954223633 15.897500267028807 69.95999954223633 S 26.127500267028807 66.05999954223633 30.03750026702881 69.95999954223633 S 33.93750026702881 80.18999954223632 30.03750026702881 84.09999954223633 S 19.807500267028807 87.99999954223632 15.897500267028807 84.09999954223633 z" width="0" height="0"/>
 </g>
</svg>