<svg width="84" height="114" xmlns="http://www.w3.org/2000/svg">

 <g width="0" height="0">
  <title width="0" height="0">Layer 1</title>
  <path stroke="#efe3e3" id="imagebot_2" fill="#f7f7ef" d="M 83.67000038146972 95.60999990463257 C 80.64000038146973 93.58999990463256 77.03000038146973 91.72999990463256 72.64000038146973 90.10999990463257 C 56.72000038146973 84.25999990463256 55.08000038146973 81.60999990463257 55.08000038146973 67.86999990463256 C 60.70000038146972 62.40999990463257 61.87000038146972 53.11999990463257 61.87000038146972 53.11999990463257 C 66.24000038146973 52.72999990463257 69.36000038146973 43.67999990463257 64.91000038146973 39.539999904632566 C 64.91000038146973 39.539999904632566 67.02000038146973 31.34999990463257 67.02000038146973 23.14999990463257 C 67.02000038146973 8.049999904632568 54.680000381469725 5.239999904632569 54.680000381469725 5.239999904632569 S 52.00000038146973 0.01999990463256829 41.750000381469725 -9.536743128535363e-8 C 41.680000381469725 -9.536743128535363e-8 41.60000038146973 0.009999904632568501 41.530000381469726 0.009999904632568501 C 21.320000381469725 0.08999990463256857 16.650000381469724 14.87999990463257 16.650000381469724 23.16999990463257 C 16.650000381469724 31.359999904632566 18.760000381469723 39.55999990463257 18.760000381469723 39.55999990463257 C 14.310000381469727 43.69999990463257 17.430000381469725 52.74999990463257 21.80000038146973 53.13999990463257 C 21.80000038146973 53.13999990463257 22.970000381469724 62.42999990463257 28.59000038146973 67.88999990463257 C 28.59000038146973 81.62999990463257 26.950000381469728 84.27999990463258 11.030000381469726 90.12999990463257 C 6.640000381469726 91.73999990463257 3.0200003814697283 93.60999990463257 3.8146972514141453e-7 95.62999990463257 C 10.410000381469729 106.90999990463257 25.280000381469726 114.00999990463256 41.84000038146973 114.00999990463256 S 73.26000038146972 106.88999990463257 83.67000038146972 95.60999990463257 z" width="0" height="0"/>
 </g>
</svg>